<?xml version="1.0" encoding="utf-8" ?>
<svg xmlns="http://www.w3.org/2000/svg" xmlns:xlink="http://www.w3.org/1999/xlink" width="1200" height="1159">
	<path fill="#060606" d="M494.148 0L500.983 0C500.978 0.278475 500.983 0.557359 500.967 0.835426C500.827 3.28547 498.566 5.46586 496.741 6.86211C493.226 9.55226 489.131 11.5945 485.384 13.9544C478.575 18.2426 471.818 22.7789 465.33 27.5421C453.122 36.505 442.349 46.7259 431.655 57.4074C414.155 74.886 393.563 95.609 389.586 121.164C388.102 130.698 388.834 141.749 394.851 149.715C401.796 158.91 414.998 163.09 426 164.334C444.642 166.442 464.424 163.747 483.184 163.526C514.401 163.158 544.767 174.795 564.584 199.419C568.936 204.827 574.653 211.855 577.371 218.205C576.716 203.539 569.987 190.679 562.55 178.343C560.069 174.227 557.193 170.098 555.408 165.633C584.849 161.302 614.531 171.151 639.481 186.665C649.114 192.654 658.082 199.692 667.632 205.826C681.379 214.656 694.87 221.589 708.692 231.033L708.34 230.197C705.516 223.587 695.99 215.051 697.276 207.956C706.49 204.538 735.601 214.283 744.682 218.495C751.964 221.873 758.616 226.123 765.278 230.558C774.728 234.84 784.143 239.2 793.522 243.638C798.628 246.03 804.144 248.239 808.994 251.121C829.811 252.391 853.867 259.123 875.055 262.375C921.477 269.5 976.618 273.1 1022.19 259.097C1045.8 251.842 1076.03 234.276 1094.63 217.741C1115.92 198.814 1131.12 175.194 1142.37 149.262C1143.58 146.467 1145.6 140.703 1148.86 140.225C1151.85 143.275 1151.93 158.171 1151.88 162.723C1151.69 184.464 1146.6 206.148 1141.48 227.15C1139.42 235.583 1137.99 244.073 1135.63 252.446C1125.3 289.072 1107.56 324.428 1080.08 351.145C1036.71 393.303 983.768 410.951 924.546 416.922C912.437 418.143 900.068 419.659 887.891 419.597C885.655 419.586 882.363 419.153 880.66 417.539C879.491 416.432 879.15 415.023 878.738 413.522L877.431 413.841C872.167 429.586 868.41 453.038 855.778 464.239C860.139 472.769 864.597 481.274 868.753 489.906C876.292 505.562 881.627 520.095 896.659 530.348C905.333 536.264 916.038 539.526 924.227 545.92C926.453 563.06 923.622 578.913 915.344 594.126C911.755 600.721 907.769 606.903 905.534 614.127C904.32 618.053 903.602 621.827 903.494 625.938C903.313 632.787 906.802 647.133 902.492 652.54C899.116 656.774 892.675 658.788 888.51 662.313C881.346 668.375 875.546 676.127 868.098 681.825C865.931 683.483 864.126 684.404 861.453 684.975C849.915 688.624 839.834 687.841 827.97 688.374C822.086 688.638 816.231 689.425 810.348 689.687C802.487 690.037 794.494 689.64 786.623 689.595C778.559 689.548 770.387 689.852 762.342 689.373C753.969 688.874 745.711 687.278 737.383 686.371C731.667 685.749 725.833 685.794 720.158 684.899C712.783 693.848 703.841 701.316 696.551 710.17C692.219 715.431 689.767 721.832 686.043 727.485C680.527 735.857 673.816 743.453 668.189 751.74C663.525 756.718 659.705 762.532 655.571 767.956C648.824 776.806 641.834 784.751 636.464 794.576C631.377 801.415 631.335 810.552 628.843 818.446C626.617 825.496 623.742 832.344 621.6 839.419C620.646 842.57 620.414 846.886 618.945 849.693C618.042 850.004 617.149 849.995 616.711 850.923C615.066 854.409 616.237 861.187 616.504 865.092C618.268 890.919 622.96 914.422 633.396 938.17C658.651 995.644 703.125 1041.45 751.508 1080.13C760.938 1087.67 774.491 1099.73 785.668 1103.92C788.028 1104.81 790.354 1104.76 792.826 1104.57C778.559 1125.47 732.087 1145.04 709.694 1159L709.196 1159L701.623 1159C693.58 1157.39 684.029 1158.13 675.758 1157.98C664.915 1157.77 654.232 1157.23 643.411 1156.53C615.601 1156.87 587.463 1154.46 559.859 1151.39C541.522 1149.34 522.843 1147.96 505.207 1142.12C504.274 1134.2 485.14 1128.84 478.984 1126.69C441.496 1113.57 408.647 1093.29 375.849 1071.24C357.216 1058.71 338.023 1045.35 321.765 1029.8C309.51 1018.07 297.507 1005.31 286.211 992.644C279.56 985.186 273.442 977.355 266.411 970.224C263.719 962.556 259.003 955.233 255.696 947.757C247.806 930.116 240.639 912.161 234.214 893.935C224.55 866.516 217.525 838.237 213.235 809.483C211.106 794.514 209.965 779.464 208.214 764.456C206.836 752.64 204.556 740.93 203.355 729.103C201.914 714.917 201.969 700.836 201.991 686.601C200.196 681.146 198.845 675.915 198.325 670.183C197.469 660.737 198.365 651.141 198.463 641.666C198.663 622.248 198.38 602.627 200.699 583.312C201.931 573.061 204.48 563.12 206.027 552.939C206.063 552.204 206.102 551.517 206.225 550.79C213.35 508.683 240.994 452.8 267.315 419.373C271.224 414.408 275.892 409.941 280.198 405.32C291.073 393.652 296.735 386.966 309.926 377.515C307.684 366.423 298.143 358.127 293.185 348.108C287.57 336.761 286.066 323.838 280.925 312.269C278.659 307.168 272.839 301.766 272.462 296.137C272.363 294.648 272.406 293.815 273.378 292.681C276.069 292.1 278.749 292.815 281.422 293.281L282.1 292.824C281.125 289.946 264.363 270.863 261.15 267.724C257.868 268.057 253.937 266.319 251.089 264.746C238.895 258.014 229.971 242.842 226.268 229.808C219.585 206.282 228.027 184.376 239.487 164.006C242.332 158.947 245.95 154.21 249.343 149.51C264.922 127.926 282.948 111.224 303.567 94.6072C314.266 85.9847 325.174 77.7492 336.158 69.5021C342.628 64.6439 348.968 59.4399 355.748 55.0265C381.988 37.9447 410.881 26.4994 440.254 16.1336C449.224 12.9682 458.019 9.45465 467.143 6.73358C476.046 4.07855 485.222 2.53502 494.148 0Z"/>
	<path fill="#FC6FFC" d="M494.148 0L500.983 0C500.978 0.278475 500.983 0.557359 500.967 0.835426C500.827 3.28547 498.566 5.46586 496.741 6.86211C493.226 9.55226 489.131 11.5945 485.384 13.9544C478.575 18.2426 471.818 22.7789 465.33 27.5421C453.122 36.505 442.349 46.7259 431.655 57.4074C414.155 74.886 393.563 95.609 389.586 121.164C388.102 130.698 388.834 141.749 394.851 149.715C401.796 158.91 414.998 163.09 426 164.334C444.642 166.442 464.424 163.747 483.184 163.526C514.401 163.158 544.767 174.795 564.584 199.419C568.936 204.827 574.653 211.855 577.371 218.205C576.716 203.539 569.987 190.679 562.55 178.343C560.069 174.227 557.193 170.098 555.408 165.633C584.849 161.302 614.531 171.151 639.481 186.665C649.114 192.654 658.082 199.692 667.632 205.826C681.379 214.656 694.87 221.589 708.692 231.033L708.34 230.197C705.516 223.587 695.99 215.051 697.276 207.956C706.49 204.538 735.601 214.283 744.682 218.495C751.964 221.873 758.616 226.123 765.278 230.558C771.014 235.645 776.71 240.691 781.682 246.557C796.234 263.727 805.089 286.606 809.644 308.514C811.172 315.862 811.595 324.894 815.703 331.314C820.739 339.184 830.967 343.731 837.6 350.517C846.525 359.648 854.852 371.756 856.958 384.588C857.55 388.196 857.313 392.148 857.279 395.806C849.408 399.712 841.265 404.424 832.87 407.005C827.031 408.8 820.299 409.315 814.786 406.265C805.826 401.308 803.078 392.115 799.215 383.467C797.187 378.926 793.571 375.398 791.649 370.551C787.04 358.931 786.402 346.534 782.964 334.685C782.009 331.395 780.803 328.613 778.087 326.417C775.887 324.639 773.354 323.365 770.784 322.224C763.496 318.99 756.548 316.073 749.852 311.666C741.55 306.202 734.019 299.471 725.267 294.726C734.643 311.579 775.506 366.879 775.753 381.255C775.854 387.153 769.312 393.604 765.364 397.487C760.616 402.155 753.064 400.042 747.037 399.843C738.195 399.552 730.285 397.813 721.673 395.84C706.735 392.419 693.667 387.25 681.008 378.462C663.849 366.549 649.918 351.996 630.199 343.845C614.899 337.521 599.339 337.612 583.1 337.706C585.945 331.453 588.993 325.64 593.302 320.257C603.697 307.274 617.852 299.614 634.39 297.931C660.108 295.314 683.653 309.793 702.847 325.353C700.322 321.71 697.015 318.534 694.013 315.274C678.803 298.749 664.864 290.302 644.578 281.252C638.863 278.703 632.24 277.281 626.864 274.153C617.833 268.898 617.704 254.084 615.221 245.033C614.462 242.267 613.685 238.119 611.086 236.651C609.641 237.432 605.153 247.5 603.239 250.027C597.163 258.049 577.326 278.434 568.879 283.007C567.215 283.907 565.772 284.536 563.885 283.991L563.331 282.759C563.67 277.234 566.728 271.903 568.94 266.91C572.985 257.78 578.717 240.481 574.662 230.785C572.575 225.796 568.962 224.196 564.282 222.262C565.858 222.208 566.722 222.66 568.299 222.078L568.279 219.688C559.337 219.64 545.845 214.151 534.758 213.182C509.121 210.943 478.049 220.883 453.255 226.856C430.631 232.306 405.461 233.115 384.134 222.508C378.528 219.72 373.796 215.706 368.463 212.474C366.781 212.306 366.025 211.935 364.574 212.869C361.492 208.844 357.701 205.379 354.867 201.187C347.776 190.697 347.174 176.144 348.731 164.007C352.123 137.572 365.526 116.544 380.408 95.2384C383.647 90.6015 387.458 86.3281 390.431 81.5149C368.775 94.4552 348.401 109.094 328.457 124.509C298.219 147.88 262.855 174.608 252.959 213.558C248.957 229.31 249.086 242.775 256.849 257.046C258.741 260.523 260.942 263.661 261.15 267.724C257.868 268.057 253.937 266.319 251.089 264.746C238.895 258.014 229.971 242.842 226.268 229.808C219.585 206.282 228.027 184.376 239.487 164.006C242.332 158.947 245.95 154.21 249.343 149.51C264.922 127.926 282.948 111.224 303.567 94.6072C314.266 85.9847 325.174 77.7492 336.158 69.5021C342.628 64.6439 348.968 59.4399 355.748 55.0265C381.988 37.9447 410.881 26.4994 440.254 16.1336C449.224 12.9682 458.019 9.45465 467.143 6.73358C476.046 4.07855 485.222 2.53502 494.148 0Z"/>
	<path fill="#FDFDFD" d="M255.328 262.695C241.9 254.342 232.932 240.976 229.403 225.559C224.439 203.87 233.316 181.192 244.884 163.071C263.435 134.01 284.22 115.372 310.781 94.2358C321.55 85.6663 332.473 77.4593 343.548 69.2946C349.09 65.2087 354.289 60.854 360.117 57.1433C385.096 41.2376 412.646 30.1627 440.481 20.4146C458.009 14.2762 473.867 8.90141 492.051 4.70201C481.564 11.9025 470.578 18.3311 460.42 26.0139C449.276 34.4424 439.368 43.9385 429.457 53.7605C411.32 71.7331 390.573 92.7321 385.759 118.883C383.734 129.885 384.399 141.998 390.951 151.441C397.734 161.218 410.181 165.85 421.488 167.774C441.417 171.166 463.327 167.727 483.482 167.586C513.281 167.378 544.916 179.059 562.821 203.91C567.106 209.857 571.053 215.984 575.424 221.838C575.631 222.115 575.754 222.445 575.919 222.748L575.42 223.168C573.14 221.986 570.703 220.521 568.279 219.688C559.337 219.64 545.845 214.151 534.758 213.182C509.121 210.943 478.049 220.883 453.255 226.856C430.631 232.306 405.461 233.115 384.134 222.508C378.528 219.72 373.796 215.706 368.463 212.474C368.381 212.284 368.304 212.093 368.216 211.906C365.711 206.554 360.585 202.835 357.508 197.797C348.298 182.72 352.011 160.383 357.369 144.659C366.648 117.431 386.048 96.5185 400.871 72.4017C373.573 84.7807 349.2 103.444 325.577 121.699C307.748 135.477 289.802 149.287 274.915 166.331C265.359 177.272 257.092 189.564 251.985 203.231C246.021 219.19 243.589 239.234 251.054 255.093C252.284 257.707 253.804 260.242 255.328 262.695Z"/>
	<path fill="#FDFDFD" d="M564.189 168.38C590.761 167.239 618.45 177.777 640.508 192.157C648.335 197.259 655.528 203.291 663.462 208.244C671.751 213.419 680.459 217.853 688.826 222.883C697.22 227.929 705.293 233.683 713.426 239.146C711.975 226.568 708.587 221.659 701.203 211.584C756.345 215.813 788.518 247.873 803.288 299.512C806.409 310.423 806.518 324.282 812.559 333.967C817.343 341.635 827.688 346.256 834.171 352.747C845.739 364.331 853.22 376.718 853.247 393.31C841.913 399.656 831.763 404.868 818.545 404.162C809.66 398.868 806.989 391.005 802.885 382.152C800.246 376.459 796.061 371.813 794.01 365.763C790.095 354.209 790.083 341.157 785.624 329.868C784.417 326.81 783.234 325.526 780.605 323.623C772.826 317.993 763.462 315.023 755.188 310.156C747.735 305.772 741.085 300.159 733.875 295.408C727.852 291.439 721.266 288.504 714.698 285.577C724.429 301.711 735.354 317.061 745.23 333.091C751.963 344.197 767.985 366.511 771.008 378.222C773.13 386.445 765.53 389.542 761.861 395.684C761.744 395.879 761.634 396.079 761.521 396.276C754.603 396.201 747.558 396.31 740.675 395.596C726.766 394.154 707.09 388.712 694.75 382.177C685.36 377.205 677.513 370.76 669.252 364.217C640.495 341.438 626.536 334.052 589.354 333.7C591.631 329.317 594.381 325.197 597.556 321.413C607.46 309.687 620.944 302.956 636.231 301.796C660.269 299.971 682.982 313.949 700.622 328.917L706.232 323.43C697.901 311.345 684.343 298.663 671.946 290.811C663.247 285.303 653.606 280.808 644.117 276.823C639.565 274.911 634.657 273.344 630.313 271.006C628.338 269.943 625.843 268.434 624.624 266.482C621.555 261.568 621.3 252.785 619.875 247.068C618.618 242.026 616.873 237.435 614.664 232.739L607.424 232.888C600.101 252.026 583.173 266.57 567.751 279.417C573.264 266.483 578.568 255.629 579.407 241.236C579.674 236.658 578.464 231.61 579.01 227.234C579.437 223.807 582.281 221.085 581.79 217.408C580.068 204.489 575.829 193.773 569.806 182.279C567.933 178.703 562.373 172.638 562.545 168.977L564.189 168.38Z"/>
	<path fill="#FC6FFC" d="M404.831 827.093C400.707 808.662 398.975 790.232 397.683 771.422C396.748 757.821 395.665 744.169 395.672 730.528C395.687 701.942 399.303 673.195 404.242 645.084C405.229 639.471 407.658 622.233 411.131 618.555C411.354 618.319 411.632 618.143 411.882 617.936C412.688 618.315 412.994 618.205 413.287 619.127C415.539 626.209 414.128 645.882 414.187 653.931C414.22 662.057 414.571 670.179 415.238 678.278C420.703 750.552 446.971 817.336 487.3 877.287C501.244 898.123 516.197 918.266 532.105 937.644C537.607 944.342 543.008 951.324 548.985 957.599C556.209 965.183 564.148 972.51 572.001 979.453C577.419 984.242 583.59 988.737 588.122 994.382C593.275 1000.8 596.096 1009.68 599.494 1017.16C602.542 1023.74 605.852 1030.2 609.417 1036.53C625.233 1064.34 645.901 1089.94 667.214 1113.69C672.91 1120.03 678.486 1126.58 684.608 1132.52C690.754 1138.48 703.912 1147.91 708.163 1154.44C709.117 1155.9 709.141 1157.32 709.196 1159L701.623 1159C693.58 1157.39 684.029 1158.13 675.758 1157.98C664.915 1157.77 654.232 1157.23 643.411 1156.53C630.927 1154.91 618.61 1153.19 606.509 1149.6C576.811 1140.77 539.174 1118.44 515.86 1097.69C509.884 1092.37 505.095 1086.09 499.391 1080.56C494.544 1075.87 489.16 1071.74 484.384 1066.97C469.335 1051.93 455.586 1035.05 442.601 1018.22C409.27 975.002 376.097 906.039 362.736 852.947C357.068 829.834 353.303 806.296 351.478 782.568C349.686 761.809 349.068 740.558 351.774 719.844C352.745 712.412 358.483 684.859 364.498 680.021C365.733 679.028 366.112 679.115 367.615 679.165C370.214 682.871 367.638 709.695 367.817 716.467C367.966 722.127 368.661 727.807 369.624 733.382C375.741 768.811 389.428 795.355 404.831 827.093Z"/>
	<path fill="#FDFDFD" d="M409.297 639.194C410.474 640.464 410.704 672.462 411.038 676.966C419.167 786.414 471.443 872.829 540.994 954.61C549.368 964.456 559.293 973.441 568.935 982.045C574.469 986.983 581.425 991.822 585.721 997.912C590.198 1004.26 592.878 1012.44 596.123 1019.5C599.815 1027.35 603.868 1035.03 608.268 1042.51C615.89 1055.57 624.823 1067.73 633.966 1079.75C654.757 1107.08 677.155 1132.08 703.201 1154.54C629.802 1152.15 605.583 1154.55 540.547 1111.88C531.172 1105.58 522.376 1098.45 514.264 1090.58C509.736 1086.11 505.682 1081.15 501.075 1076.76C496.475 1072.37 491.452 1068.44 486.981 1063.91C429.963 1006.26 393.339 937.23 369.086 860.459C356.33 820.081 344.573 726.854 364.677 688.201C363.75 699.771 363.221 711.683 364.214 723.263C366.176 746.136 374.595 772.498 383.984 793.465C389.453 805.68 395.814 817.515 401.403 829.692L408.986 827.058C404.648 809.354 403.089 791.318 401.822 773.181C400.77 758.104 399.58 742.99 399.717 727.865C399.987 697.939 404.418 668.64 409.297 639.194Z"/>
	<path fill="#FC6FFC" d="M808.994 251.121C829.811 252.391 853.867 259.123 875.055 262.375C921.477 269.5 976.618 273.1 1022.19 259.097C1045.8 251.842 1076.03 234.276 1094.63 217.741C1115.92 198.814 1131.12 175.194 1142.37 149.262C1143.58 146.467 1145.6 140.703 1148.86 140.225C1151.85 143.275 1151.93 158.171 1151.88 162.723C1151.69 184.464 1146.6 206.148 1141.48 227.15C1139.42 235.583 1137.99 244.073 1135.63 252.446C1125.3 289.072 1107.56 324.428 1080.08 351.145C1036.71 393.303 983.768 410.951 924.546 416.922C912.437 418.143 900.068 419.659 887.891 419.597C885.655 419.586 882.363 419.153 880.66 417.539C879.491 416.432 879.15 415.023 878.738 413.522C880.21 407.507 877.655 400.795 879.533 394.793C879.922 393.537 880.603 392.391 881.519 391.447C883.94 388.941 891.286 389.638 894.725 389.576C924.712 389.059 954.196 381.772 980.971 368.259C998.154 359.742 1016.66 347.717 1031.07 335.154C1040.46 326.971 1047.9 316.866 1055.96 307.449C1060.73 301.869 1065.87 296.602 1070.55 290.94C1075.85 284.539 1080.63 277.697 1085.76 271.16C1090.69 264.884 1096.04 258.724 1100.06 251.823C1104.25 244.637 1106.72 236.725 1109.36 228.883C1092.91 246.969 1073.93 260.449 1054.76 275.313C1040.78 286.148 1026.84 296.59 1012.24 306.574C1004.48 311.881 996.515 317.535 988.043 321.642C961.094 334.707 888.411 331.183 859.545 320.934C847.724 316.738 830.059 307.189 824.503 295.38C821.311 288.596 820.085 280.798 817.413 273.782C815.343 268.344 811.987 263.387 809.577 258.094C808.409 255.529 808.02 253.798 808.994 251.121Z"/>
	<path fill="#FDFDFD" d="M1146.4 150.426L1147.13 151.445C1148.73 166.584 1146.52 182.278 1143.86 197.199C1141.98 207.737 1139.44 218.124 1137.04 228.551C1123.21 288.699 1101.59 334.928 1049.26 371.301C1010.13 398.496 964.454 409.072 917.679 413.518C906.506 414.58 894.231 416.649 883.14 414.66C883.068 409.399 882.004 402.669 883.3 397.62C883.841 395.513 884.915 394.246 887.018 393.515C888.618 392.958 890.432 393.162 892.089 393.255C901.481 393.779 910.383 393.009 919.671 391.704C948.159 387.42 975.484 377.412 999.998 362.281C1012.38 354.688 1025.47 345.821 1036.17 336.053C1044.8 328.185 1051.75 318.464 1059.32 309.627C1063.95 304.22 1068.96 299.137 1073.51 293.66C1079.02 287.03 1083.95 279.899 1089.27 273.111C1094.2 266.83 1099.54 260.753 1103.6 253.859C1107.62 247.026 1110.81 238.816 1112.67 231.093C1112.19 229.09 1111.66 227.342 1110.81 225.465C1108.14 225.001 1105.11 228.017 1103.26 229.789C1095.73 237.006 1088.36 244.43 1080.26 251.025C1071.78 257.925 1062.64 264.143 1053.99 270.846C1035.87 284.886 1017.7 298.825 998.269 311.036C993.357 314.123 988.26 317.505 982.769 319.454C954.938 329.331 901.595 327.214 872.294 320.429C861.139 317.846 851.231 314.061 841.917 307.325C837.923 304.437 832.802 300.76 829.912 296.708C825.621 290.694 824.013 281.043 821.503 274.074C819.088 267.367 816.044 261.292 812.292 255.237C831.216 257.245 850.108 262.476 868.936 265.561C914.254 272.983 960.796 276.139 1006.08 267.077C1012.98 265.697 1020.79 264.511 1027.32 261.889C1083.6 239.292 1122.45 207.436 1146.4 150.426Z"/>
	<path fill="#374A61" d="M758.985 654.05C736.655 657.88 727.589 672.951 707.81 677.652C703.049 678.783 697.922 679.12 693.668 676.302C684.302 670.099 670.855 646.228 668.274 635.333C665.036 621.66 667.423 611.598 658.505 599.076C650.98 588.509 638.277 582.218 628.017 574.616C584.254 542.19 552.509 509.395 542.284 453.421C537.749 428.59 540.962 406.57 548.261 382.763C549.47 378.819 550.541 372.872 552.832 369.535C562.624 371.993 568.777 379.251 577.715 383.336C583.667 386.048 589.747 388.47 595.933 390.592C601.636 392.507 607.938 393.935 613.266 396.743C616.701 398.554 618.851 400.821 620.841 404.135C628.756 417.311 628.542 430.062 646.501 434.921C655.987 437.487 668.122 437.961 677.945 438.194C679.259 438.972 680.181 439.479 680.62 441.049C681.391 443.812 680.294 446.717 678.799 449.026C674.392 455.832 659.561 468.08 652.43 471.908C646.697 474.986 640.29 477.372 633.893 478.606C623.832 480.546 613.505 480.254 603.376 479.095C607.092 485.164 612.256 490.078 617.145 495.199C622.426 500.729 627.586 506.456 633.363 511.476C644.937 521.533 656.914 530.988 668.347 541.256C672.516 545.001 677.019 548.686 680.715 552.889C688.666 561.931 692.533 571.332 699.191 580.6C699.852 581.52 700.574 582.473 701.663 582.901C702.344 583.169 702.815 582.682 703.415 582.38C706.113 578.275 706.261 572.88 706.861 568.129C707.48 570.704 707.498 575.899 709.519 577.588C714.027 576.355 718.277 551.664 725.091 543.869C724.402 546.892 723.221 550.283 723.642 553.382C724.665 554.091 725.376 554.135 726.571 554.307C729.899 554.786 732.063 556.354 734.008 559.076C736.372 562.382 738.647 568.239 742.227 570.17C747.521 575.179 746.269 595.802 758.436 599.013C759.399 598.561 759.418 598.833 759.644 597.972C759.94 596.849 759.607 596.052 759.315 594.965C758.277 593.809 757.281 592.985 756.04 592.073C755.892 589.837 755.036 585.115 756.261 583.238C759.508 584.334 765.982 581.617 769.634 581.069C776.178 580.086 783.102 585.277 788.983 587.654C798.348 591.442 812.19 587.694 819.93 593.841C822.546 595.919 823.41 598.913 823.711 602.122C824.144 606.738 823.467 611.147 820.332 614.73C815.696 620.03 808.196 621.056 802.366 624.514C794.687 629.071 787.801 635.609 780.24 640.555C774.395 644.378 763.44 648.428 759.367 653.552C759.237 653.716 759.112 653.884 758.985 654.05Z"/>
	<path fill="#FC6FFC" d="M552.832 369.535C562.624 371.993 568.777 379.251 577.715 383.336C583.667 386.048 589.747 388.47 595.933 390.592C601.636 392.507 607.938 393.935 613.266 396.743C616.701 398.554 618.851 400.821 620.841 404.135C628.756 417.311 628.542 430.062 646.501 434.921C655.987 437.487 668.122 437.961 677.945 438.194C677.78 438.803 677.604 439.408 677.417 440.01C676.205 443.841 673.16 446.073 669.633 447.823C657.748 453.721 634.207 456.804 621.441 452.673C616.939 451.216 612.572 449.071 608.257 447.136C594.06 440.773 579.614 432.614 573.218 417.53C570.913 412.094 570.781 406.062 568.633 400.605C564.397 389.842 558.063 379.83 552.832 369.535Z"/>
	<path fill="#FDFDFD" d="M562.506 378.889C564.589 379.71 566.435 381.422 568.347 382.621C571.589 384.656 575.042 386.463 578.49 388.12C583.001 390.289 587.673 392.362 592.411 393.979C599.592 396.43 611.386 397.904 616.146 404.357C621.687 411.867 622.962 421.388 629.325 428.74C640.17 441.27 655.97 440.85 671.206 441.964L664.785 445.612C653.25 449.95 634.542 452.834 622.575 448.858C606.087 443.381 584.44 433.033 577.255 416.334C574.878 410.81 574.347 404.665 572.235 399.019C569.671 392.164 565.803 385.436 562.506 378.889Z"/>
	<path fill="#FC6FFC" d="M771.645 490.057C768.148 483.395 747.114 456.57 741.68 451.322C738.895 448.633 734.634 447.605 732.011 444.72C730.578 443.143 730.183 441.509 730.22 439.439C730.854 438.261 731.454 437.641 732.664 437.029C742.669 431.97 772.732 431.906 783.831 433.163C789.073 433.756 794.285 435.026 799.33 436.553C816.765 441.83 826.669 448.376 835.203 464.376C834.786 459.657 833.794 454.624 834.073 449.912C834.222 447.402 834.865 444.583 836.891 442.907C839.145 441.041 841.763 441.262 844.504 441.489C847.594 443.356 853.709 459.857 855.778 464.239C860.139 472.769 864.597 481.274 868.753 489.906C876.292 505.562 881.627 520.095 896.659 530.348C905.333 536.264 916.038 539.526 924.227 545.92C926.453 563.06 923.622 578.913 915.344 594.126C911.755 600.721 907.769 606.903 905.534 614.127C904.32 618.053 903.602 621.827 903.494 625.938C903.313 632.787 906.802 647.133 902.492 652.54C899.116 656.774 892.675 658.788 888.51 662.313C881.346 668.375 875.546 676.127 868.098 681.825C865.931 683.483 864.126 684.404 861.453 684.975C861.008 679.459 862.144 675.317 864.333 670.364C861.15 666.38 857.269 660.872 852.618 658.506C849.607 656.974 846.41 655.924 843.519 654.156C843.354 653.144 843.148 652.752 843.522 651.756C845.512 646.465 854.761 641.596 859.644 639.251C863.89 626.73 867.777 614.304 871.134 601.51C883.016 593.551 890.106 589.473 897.689 576.418C899.944 572.537 901.31 569.117 900.151 564.654C899.91 564.405 899.739 564.059 899.427 563.908C897.791 563.119 888.56 564.178 885.938 564.045C875.684 563.523 865.458 561.983 855.241 560.999C850.139 560.508 844.898 560.752 839.838 560.059C823.07 557.761 810.878 541.79 794.045 541.199C784.824 540.875 775.135 547.137 768.646 553.339C762.113 559.582 756.504 567.572 756.384 576.922L756.261 583.238C755.036 585.115 755.892 589.837 756.04 592.073C757.281 592.985 758.277 593.809 759.315 594.965C759.607 596.052 759.94 596.849 759.644 597.972C759.418 598.833 759.399 598.561 758.436 599.013C746.269 595.802 747.521 575.179 742.227 570.17C738.647 568.239 736.372 562.382 734.008 559.076C732.063 556.354 729.899 554.786 726.571 554.307C725.376 554.135 724.665 554.091 723.642 553.382C723.221 550.283 724.402 546.892 725.091 543.869C718.277 551.664 714.027 576.355 709.519 577.588C707.498 575.899 707.48 570.704 706.861 568.129C706.823 567.901 706.77 567.676 706.748 567.447C706.208 561.862 708.329 555.031 709.137 549.414C712.897 523.251 715.12 510.861 733.102 490.66C714.569 488.122 702.473 488.088 686.764 499.329C684.587 500.887 680.676 504.892 678.309 505.538C677.545 505.746 676.833 504.974 676.209 504.578C675.299 502.823 675.337 501.634 675.947 499.816C679.36 489.648 693.032 476.941 702.691 472.448C717.9 465.375 734.63 470.579 748.607 478.188C755.811 482.11 763.135 487.026 770.864 489.784L771.645 490.057Z"/>
	<path fill="#060606" d="M725.091 543.869C725.207 543.728 725.325 543.589 725.439 543.447C728.588 539.531 730.681 534.878 733.821 530.973C740.943 522.116 753.919 516.075 765.058 514.805C775.239 513.644 783.644 517.511 791.721 523.271C777.827 523.436 765.372 525.068 755.206 535.635C745.818 545.394 744.344 557.399 742.227 570.17C738.647 568.239 736.372 562.382 734.008 559.076C732.063 556.354 729.899 554.786 726.571 554.307C725.376 554.135 724.665 554.091 723.642 553.382C723.221 550.283 724.402 546.892 725.091 543.869Z"/>
	<path fill="#FDFDFD" d="M760.27 436.768C774.664 435.701 788.802 436.831 802.463 441.764C816.674 446.896 825.397 453.459 831.851 467.218C834.395 466.402 836.999 465.721 839.566 464.978C838.645 459.236 837.191 452.023 839.042 446.417C840.183 445.221 840.08 445.215 841.72 445.124C845.37 447.267 846.612 455.214 848.716 459.008C851.73 464.443 854.197 470.28 856.929 475.874C859.583 481.306 862.553 486.582 865.129 492.051C872.691 508.097 878.032 521.897 892.895 532.679C901.319 538.789 911.006 543.174 920.283 547.833C922.261 562.824 919.396 578.055 912.106 591.302C907.233 600.17 902.391 608.003 900.142 618.03C898.062 627.301 900.742 636.376 900.28 645.581C900.192 647.312 899.886 648.942 898.648 650.241C895.548 653.491 890.431 655.281 886.869 658.224C879.138 664.612 872.262 672.121 864.938 678.981C866.203 675.912 867.719 673.069 869.316 670.164C862.916 661.674 857.661 656.277 848.028 651.552C852.757 647.784 857.114 644.826 862.694 642.446C867.552 630.07 871.24 616.887 874.604 604.032C881.647 599.899 887.794 595.822 893.19 589.606C901.337 580.22 905.126 572.131 904.31 559.54C898.592 559.428 892.885 560.073 887.163 559.928C877.629 559.687 867.956 558.165 858.459 557.24C850.259 556.441 841.613 557.203 833.77 554.352C824.82 551.099 816.911 545.355 808.675 540.67C801.816 537.895 794.877 536.211 787.453 537.795C775.479 540.349 764.012 550.512 757.452 560.501C754.216 565.429 751.023 572.908 752.393 578.85L753.242 582.606C753.053 582.87 752.501 583.815 752.21 583.912C749.214 581.812 748.286 573.048 746.911 569.324L746.656 568.652C748.407 557.05 750.064 546.228 758.889 537.647C768.806 528.003 780.39 527.297 793.444 527.449L793.479 519.069C788.611 516.796 784.195 513.555 779.025 511.914C768.2 508.477 755.828 511.687 746.019 516.64C727.526 525.976 716.887 547.204 710.663 566.029C715.936 530.034 714.322 514.725 741.985 487.682C741.77 487.64 741.556 487.596 741.34 487.557C714.829 482.811 702.881 483.076 680.348 498.686C685.37 491.873 690.832 485.159 697.703 480.122C723.512 461.203 744.004 483.844 767.45 492.434C771.152 493.791 775.213 494.299 779.093 494.922C772.089 482.05 753.689 456.729 742.951 447.267C740.054 444.715 736.527 442.877 733.211 440.917C741.974 438.174 751.171 437.497 760.27 436.768Z"/>
	<path fill="#FC6FFC" d="M840.822 468.182C842.157 470.281 843.662 471.96 845.403 473.731C843.06 478.365 840.77 483.025 838.536 487.712C836.257 482.574 835.249 476.314 833.846 470.85L840.822 468.182Z"/>
	<path fill="#374A61" d="M206.027 552.939C207.473 553.941 208.144 554.681 209.923 554.795C211.178 553.976 211.909 553.224 212.589 551.906C214.396 548.404 215.195 544.384 216.839 540.792C219.231 535.567 223.238 530.209 226.577 525.505C232.213 517.566 238.668 510.312 244.879 502.83L278.29 462.797C283.048 457.131 287.108 450.932 291.777 445.206C294.899 441.378 298.708 438.098 302.14 434.551C309.956 426.471 324.469 410.58 333.658 405.214C334.843 404.521 335.972 404.403 337.318 404.277C342.655 404.271 347.489 407.633 352.839 408.33C354.448 408.439 356.335 408.709 357.916 408.438C359.385 408.186 359.497 407.686 360.332 406.542C361.354 407.517 361.596 407.698 361.973 409.039C360.841 410.935 357.836 411.808 355.892 412.797C353.519 426.217 341.193 432.47 338.643 449.92C343.459 448.768 353.326 444.931 357.829 447.589C359.446 448.544 360.084 450.153 360.345 451.916C360.616 453.752 360.499 455.884 359.334 457.406C356.178 461.528 350.876 465.114 347.001 468.628L324.728 489.104C313.264 499.568 303.305 512.47 293.657 524.591C265.588 559.692 243.953 599.485 229.754 642.127C227.389 649.416 225.249 656.776 223.337 664.197C221.298 672.347 219.976 680.456 216.323 688.087C215.168 690.5 214.48 691.921 211.967 693.084C208.721 693.032 206.567 691.494 204.323 689.227C203.5 688.396 202.742 687.496 201.991 686.601C200.196 681.146 198.845 675.915 198.325 670.183C197.469 660.737 198.365 651.141 198.463 641.666C198.663 622.248 198.38 602.627 200.699 583.312C201.931 573.061 204.48 563.12 206.027 552.939Z"/>
	<path fill="#060606" d="M337.318 404.277C342.655 404.271 347.489 407.633 352.839 408.33L352.413 410.324C350.524 411.212 349.153 411.071 347.17 410.447C344.078 409.473 338.871 407.16 337.318 404.277Z"/>
	<path fill="#FC6FFC" d="M309.926 377.515C307.684 366.423 298.143 358.127 293.185 348.108C287.57 336.761 286.066 323.838 280.925 312.269C278.659 307.168 272.839 301.766 272.462 296.137C272.363 294.648 272.406 293.815 273.378 292.681C276.069 292.1 278.749 292.815 281.422 293.281C289.541 295.612 297.715 297.459 306.105 298.493C318.558 300.029 331.238 300.461 343.759 301.319C361.784 302.611 379.8 304.01 397.808 305.515C410.43 306.542 423.471 307.137 435.878 309.733C440.412 310.681 445.169 312.113 449.194 314.446C456.903 318.912 462.49 326.362 468.787 332.499C475.155 338.707 482.393 344.951 489.286 350.572C490.875 351.867 492.08 354.145 491.973 356.255C491.932 357.074 491.697 357.959 490.942 358.356C488.803 359.48 484.154 358.307 483.122 360.696C482.204 362.82 481.562 363.971 479.36 364.816C476.385 365.959 473.126 364.887 470.431 363.509C464.781 360.621 459.97 356.021 454.906 352.255C448.342 347.459 441.254 343.425 433.778 340.23C423.437 335.705 412.613 332.98 401.466 331.312C388.739 329.408 326.222 327.56 315.961 330.505C315.4 330.666 315.178 330.777 314.603 331.011C313.891 333.257 316.253 337.085 317.298 339.113C323.571 351.279 331.924 362.292 339.26 373.817C346.305 384.886 352.08 396.229 360.332 406.542C359.497 407.686 359.385 408.186 357.916 408.438C356.335 408.709 354.448 408.439 352.839 408.33C347.489 407.633 342.655 404.271 337.318 404.277C335.972 404.403 334.843 404.521 333.658 405.214C324.469 410.58 309.956 426.471 302.14 434.551C298.708 438.098 294.899 441.378 291.777 445.206C287.108 450.932 283.048 457.131 278.29 462.797L244.879 502.83C238.668 510.312 232.213 517.566 226.577 525.505C223.238 530.209 219.231 535.567 216.839 540.792C215.195 544.384 214.396 548.404 212.589 551.906C211.909 553.224 211.178 553.976 209.923 554.795C208.144 554.681 207.473 553.941 206.027 552.939C206.063 552.204 206.102 551.517 206.225 550.79C213.35 508.683 240.994 452.8 267.315 419.373C271.224 414.408 275.892 409.941 280.198 405.32C291.073 393.652 296.735 386.966 309.926 377.515Z"/>
	<path fill="#FDFDFD" d="M276.423 296.865C287.415 298.749 297.957 301.857 309.108 303.032C320.002 304.181 331.052 304.56 341.985 305.325C360.094 306.627 378.196 308.034 396.288 309.546C408.742 310.566 421.618 311.138 433.878 313.586C438.524 314.513 443.437 315.867 447.565 318.257C453.62 321.762 458.79 328.428 463.703 333.405C468.231 337.991 482.394 351.104 487.247 354.319C487.415 354.431 487.588 354.537 487.758 354.645C486.082 354.971 483.886 355.21 482.34 355.925C479.555 357.214 478.802 359.51 477.636 362.12C469.651 359.129 463.615 353.856 456.864 348.842C425.926 325.865 389.648 325.324 352.91 325.319C338.581 325.318 324.272 324.979 310.057 327.109C310.183 330.975 310.611 334.204 312.085 337.786C317.081 349.923 325.847 361.1 333.083 372.013C339.911 382.364 346.338 392.974 352.349 403.82C346.445 404.03 342.01 399.651 334.477 400.598L333.702 400.703C324.357 404.679 298.171 432.033 290.231 440.82C284.625 447.024 280.182 454.369 274.753 460.776L243.04 498.723C232.291 511.758 221.902 524.074 213.363 538.745C224.712 497.101 244.185 454.798 271.378 421.011C275.838 415.468 281.087 410.519 285.965 405.348C289.99 401.08 293.635 396.394 297.859 392.323C302.971 387.395 308.872 383.294 314.609 379.137C311.042 363.65 302.818 358.862 296.574 345.676C293.256 338.668 291.647 331.196 289.369 323.834C286.317 313.972 282.022 305.477 276.423 296.865Z"/>
	<path fill="#374A61" d="M564.282 222.262C558.972 222.187 553.886 221.154 548.489 221.588C532.644 222.862 520.922 234.858 506.474 239.888C497.599 242.977 488.48 245.551 479.493 248.317C449.29 257.613 421.754 264.167 389.943 264.88C365.969 265.417 335.667 263.46 317.396 245.856C307.812 236.621 301.718 230.744 298.944 217.132C298.108 213.026 297.332 208.884 297.291 204.682C297.251 200.608 297.611 194.184 300.541 191.174C301.26 190.969 301.829 190.66 302.583 190.847C307.902 192.17 308.646 197.861 311.384 201.686C314.16 205.564 319.079 206.452 322.776 209.131C325.92 211.409 328.071 215.058 331.453 217.02C333.61 218.272 336.208 218.966 338.662 219.296C346.134 220.301 357.959 218.168 363.889 213.442C364.122 213.256 364.346 213.06 364.574 212.869C366.025 211.935 366.781 212.306 368.463 212.474C373.796 215.706 378.528 219.72 384.134 222.508C405.461 233.115 430.631 232.306 453.255 226.856C478.049 220.883 509.121 210.943 534.758 213.182C545.845 214.151 559.337 219.64 568.279 219.688L568.299 222.078C566.722 222.66 565.858 222.208 564.282 222.262Z"/>
	<path fill="#FC6FFC" d="M418.299 511.59C419.244 511.683 419.623 511.842 420.456 512.245L420.877 513.647C419.146 522.418 410.75 528.512 404.852 534.441C401.102 538.211 398.033 542.939 394.579 547.018C372.622 572.948 351.456 606.027 337.282 636.947C331.766 648.979 327.234 661.6 322.363 673.908C311.058 702.473 301.357 731.226 296.932 761.742C293.033 788.632 293.985 827.716 296.149 855.256C297.579 873.45 299.021 892.06 302.006 910.066C303.138 916.896 304.284 923.787 305.783 930.547C307.34 937.57 310.387 945.352 310.159 952.574C310.083 955.012 309.682 956.36 307.931 958.074L307.046 957.924C301.422 951.925 293.841 938.846 288.633 931.492C283.699 923.614 277.77 916.389 272.83 908.506C260.892 889.455 253.206 867.759 248.379 845.868C235.964 789.553 240.177 727.847 264.353 675.227C267.457 668.47 270.372 660.882 274.432 654.647C278.577 648.28 283.444 642.34 287.771 636.087C304.867 611.385 321.919 586.746 343.65 565.747C357.587 552.28 373.479 540.37 389.104 528.948C396.229 523.739 410.147 513.268 418.299 511.59Z"/>
	<path fill="#FC6FFC" d="M474.922 484.789C475.499 485.1 476.531 485.694 476.834 486.339C477.894 488.592 477.02 495.515 476.743 498.051C475.797 506.703 474.772 514.795 475.614 523.519C477.733 545.489 492.06 576.949 504.685 595.198C524.32 623.577 555.787 643.198 589.453 650.168C601.246 652.61 613.282 653.127 625.051 655.361C627.776 655.878 632.446 656.928 633.909 659.465C634.623 660.702 634.731 661.45 634.31 662.772C626.252 667.132 611.322 670.224 602.083 672.896C591.386 675.644 580.623 678.323 569.756 680.31C541.215 685.529 508.738 685.765 484.054 668.474C466.053 655.865 456.464 634.875 452.734 613.715C446.496 578.318 453.349 543.07 464.72 509.557C467.544 501.235 469.855 492.054 474.922 484.789Z"/>
	<path fill="#374A61" d="M365.992 347.453C393.098 347.83 413.079 373.035 436.522 383.943C441.925 386.457 447.435 388.798 453.164 390.468C460.862 392.711 468.714 393.696 475.553 398.145C476.011 399.317 476.339 399.935 475.858 401.212C474.74 404.178 469.584 405.442 466.895 406.392C456.562 410.035 446.106 412.084 435.128 412.082C417.326 412.08 401.644 406.984 389.042 394.148C381.259 386.22 377.911 378.621 371.763 370.146C369.127 366.513 365.673 363.311 363.486 359.366C362.506 357.6 361.904 355.504 362.014 353.472C362.169 350.584 363.913 349.162 365.992 347.453Z"/>
	<path fill="#FC6FFC" d="M631.287 387.698C632.598 387.966 633.793 388.352 635.001 388.941C643.425 393.046 679.039 412.946 680.451 420.456C680.81 422.363 680.106 422.734 679.012 424.099C670.337 422.078 661.551 421.708 652.855 419.961C637.259 416.829 636.324 403.94 628.63 392.632L628.119 391.892C629.104 390.46 630.235 389.085 631.287 387.698Z"/>
	<path fill="#FDFDFD" d="M633.529 392.211C639.564 393.424 668.92 414.017 675.187 419.037C667.185 417.397 658.539 417.991 650.811 415.246C641.012 411.766 637.57 400.858 633.529 392.211Z"/>
	<path fill="#FC6FFC" d="M618.945 849.693C626.231 855.192 631.01 862.736 637.093 869.414C643.658 876.621 651.967 883.451 659.79 889.282C717.517 932.312 802.908 940.623 872.294 930.859C926.109 922.993 977.902 904.823 1024.84 877.342C1035.41 871.275 1045.78 865.222 1055.73 858.152C1072.2 846.451 1088.4 833.773 1103.89 820.808C1110.25 815.486 1116.21 809.665 1122.64 804.448C1127.2 800.753 1131.98 797.276 1136.35 793.356C1140.59 789.545 1144.85 783.116 1149.72 780.394C1151.22 779.556 1152.1 779.598 1153.62 780.277C1153.14 787.723 1137.72 809.29 1132.98 816.567C1122.01 833.369 1112.29 850.844 1100.71 867.28C1083.69 891.449 1064.02 912.884 1044.17 934.655C1030.56 949.57 1016.82 965.185 1001.59 978.466C996.397 982.989 990.838 987.054 985.536 991.44C978.344 997.388 971.663 1003.83 964.287 1009.59C951.594 1019.49 938.454 1028.35 925.055 1037.25C917.428 1042.31 910.053 1047.91 902.259 1052.7C869.594 1072.76 829.075 1091.99 792.826 1104.57C790.354 1104.76 788.028 1104.81 785.668 1103.92C774.491 1099.73 760.938 1087.67 751.508 1080.13C703.125 1041.45 658.651 995.644 633.396 938.17C622.96 914.422 618.268 890.919 616.504 865.092C616.237 861.187 615.066 854.409 616.711 850.923C617.149 849.995 618.042 850.004 618.945 849.693Z"/>
	<path fill="#FDFDFD" d="M1141.82 793.96C1141.82 794.113 1141.84 794.267 1141.82 794.418C1141.32 798.273 1127.42 817.295 1124.64 821.843C1113.15 840.649 1101.87 859.051 1088.65 876.743C1075.17 894.798 1059.86 911.443 1044.6 927.987C1030.19 943.615 1016.08 959.589 1000.39 973.992C994.293 979.59 987.411 984.332 981.124 989.722C968.383 1000.64 955.999 1011.29 942.173 1020.89C935.19 1025.74 927.967 1030.25 920.939 1035.04C913.662 1039.99 906.488 1045.34 898.938 1049.87C870.147 1067 840.014 1081.78 808.835 1094.05C803.213 1096.29 793.69 1101.59 787.765 1100.26C779.825 1098.48 762.88 1084.3 756.14 1078.72C749.575 1073.27 742.702 1068.2 736.226 1062.64C706.798 1037.4 682.914 1011.69 661.038 979.519C643.049 952.333 628.152 922.695 623.05 890.179C621.259 878.768 620.83 867.219 619.941 855.718C625.096 860.856 629.12 867.114 634.139 872.409C679.135 919.871 747.306 936.58 810.557 938.515C886.289 940.832 960.707 918.604 1026.12 881.298C1033.53 877.072 1041.17 872.995 1048.32 868.34C1074.49 851.299 1099.08 830.515 1122.54 809.973C1128.84 804.457 1135.71 799.706 1141.82 793.96Z"/>
	<path fill="#FC6FFC" d="M0 731.564L0.0915678 731.042C1.18225 724.534 1.3508 717.857 2.29503 711.309C4.51841 695.892 7.70891 680.222 11.6545 665.15C22.9243 622.101 44.2768 583.449 70.1641 547.552C75.1592 540.625 80.0097 532.923 85.731 526.601C94.2946 517.139 104.405 508.837 114.045 500.51C118.831 496.376 123.33 491.922 128.172 487.851C140.114 477.812 153.017 468.113 165.678 458.984C167.603 457.595 169.356 456.688 171.656 456.1L172.678 456.422C173.95 461.69 167.039 472.943 164.692 477.874C155.126 497.976 147.774 521.781 142.226 543.329C136.763 564.543 134.79 581.725 133.073 603.468C132.412 611.838 131.315 620.259 131.176 628.653C129.784 712.844 155.192 795.859 194.518 869.567C200.337 880.473 205.857 892.353 212.472 902.742C215.826 908.009 219.971 912.94 223.725 917.934C231.65 928.476 239.509 938.746 248.017 948.836C254.041 955.98 259.89 963.538 266.411 970.224C273.442 977.355 279.56 985.186 286.211 992.644C297.507 1005.31 309.51 1018.07 321.765 1029.8C338.023 1045.35 357.216 1058.71 375.849 1071.24C408.647 1093.29 441.496 1113.57 478.984 1126.69C485.14 1128.84 504.274 1134.2 505.207 1142.12C499.007 1141.79 492.845 1140.68 486.827 1139.19C474.221 1136.06 461.727 1132.08 449.344 1128.15C433.442 1123.1 417.508 1117.99 402.113 1111.53C368.453 1097.41 337.386 1079.03 307.695 1057.89C298.236 1051.15 288.689 1044.38 279.796 1036.9C252.063 1013.58 226.408 986.352 203.58 958.285C195.231 948.02 186.536 937.739 178.835 926.995C174.616 921.108 170.999 914.748 167.119 908.633C160.124 897.804 153.27 886.885 146.559 875.879C136.75 859.617 128.716 842.552 120.879 825.272C84.2498 744.498 74.3221 671.165 92.1801 584.371C94.7514 571.874 98.7079 560.023 102.874 547.984C105.12 541.491 107.786 534.944 109.39 528.26C109.447 528.022 109.499 527.783 109.554 527.545C101.793 541.387 93.9509 555.301 86.4888 569.298C78.5611 584.168 72.2639 599.794 66.2933 615.529C57.7773 637.972 50.2051 660.643 45.2509 684.191C30.9939 751.956 33.8892 834.669 54.3101 900.966C59.0682 916.414 65.0214 931.47 72.1158 945.994C75.3037 952.5 86.7723 971.687 87.905 976.478C88.2505 977.939 88.1308 978.523 87.3348 979.752C85.5898 979.804 83.8035 978.276 82.4498 977.289C73.3393 970.643 66.9006 957.171 60.8269 947.781C32.8619 904.865 14.0782 856.626 5.65676 806.1C4.1857 797.234 2.93532 788.333 1.90677 779.405C1.30078 773.64 1.0759 767.748 0.0996556 762.036L0 761.479L0 731.564Z"/>
	<path fill="#FDFDFD" d="M166.222 464.077C165.777 467.22 153.704 492.905 151.482 499.384C143.641 522.245 136.255 545.436 132.372 569.341C130.544 580.593 129.717 591.848 128.802 603.198C127.922 614.112 127.038 624.843 127.048 635.802C114.374 634.903 101.694 634.075 89.0101 633.319C89.4742 623.717 91.1027 614.376 92.758 604.929C94.2338 596.508 95.5129 588.011 97.5247 579.696C101.17 564.629 106.444 550.071 111.638 535.488L109.86 527.892C109.569 527.962 109.276 528.029 108.985 528.101C104.32 529.27 102.595 531.749 100.251 535.739C73.3516 581.538 50.8512 634.026 40.5564 686.33C35.1602 713.746 32.9163 741.859 32.5377 769.762C31.7457 810.171 36.5085 850.497 46.6925 889.61C51.6587 908.039 58.1503 926.024 66.1 943.377C69.0317 949.888 73.0649 955.951 75.6505 962.575L75.9592 963.39L76.2252 962.692L75.3483 963.269L75.3658 963.296C72.1422 956.955 67.8577 951.135 63.9895 945.174C57.5452 935.245 51.253 925.085 45.8466 914.546C16.5302 857.397 -2.91193 777.52 6.18365 713.314C14.7542 652.814 35.2696 602.441 71.2607 553.047C76.986 545.19 82.5698 536.297 89.2004 529.204C97.1115 520.741 105.782 513.212 114.505 505.623C120.929 500.034 127.065 494.113 133.669 488.731C144.202 480.148 155.373 472.262 166.222 464.077Z"/>
	<path fill="#FC6FFC" d="M1198.98 615.823C1199.81 617.835 1199.85 617.796 1199.19 619.859C1199.47 621.836 1198.72 623.188 1197.81 624.886C1193.94 632.164 1187.98 638.932 1183.09 645.597C1179.8 650.077 1176.89 654.833 1173.54 659.261C1165.57 669.819 1156.92 679.979 1148.49 690.182C1144.2 695.383 1140.27 700.931 1135.68 705.878C1087.03 758.306 1009.25 815.228 942.064 839.27C918.648 847.648 893.616 853.033 869.004 856.393C817.902 863.369 747.452 861.879 699.429 840.951C684.351 834.38 671.673 825.603 658.002 816.624C652.327 812.896 646.022 809.742 640.666 805.591C638.715 804.08 636.603 802.257 636.205 799.675C635.954 798.044 636.292 796.211 636.464 794.576C641.834 784.751 648.824 776.806 655.571 767.956C659.705 762.532 663.525 756.718 668.189 751.74C668.363 751.699 668.536 751.654 668.712 751.617C670.218 751.299 671.948 750.92 673.488 751.098C677.776 751.594 689.838 762.259 694.241 764.985C715.606 778.213 740.06 788.56 764.662 793.863C789.156 799.143 813.924 799.791 838.874 798.71C933.809 794.594 1035.37 757.449 1110.44 699.157C1120.68 691.202 1130.21 682.36 1139.9 673.754C1150.47 664.37 1161.19 655.187 1171.17 645.163C1177.24 639.07 1193.06 617.207 1198.98 615.823Z"/>
	<path fill="#FDFDFD" d="M1180 641.892L1180.17 642.167C1180.09 642.681 1180.1 642.782 1179.86 643.33C1176.55 650.898 1160.3 669.167 1154.4 676.502C1138.86 695.81 1123.55 713.804 1105.46 730.841C1095.25 740.453 1084.23 748.53 1073.29 757.218C1068.61 760.936 1064.26 765.083 1059.49 768.692C1051.03 775.102 1041.93 780.96 1033.06 786.809C998.534 809.588 961.191 830.843 920.973 841.643C901.861 846.771 882.424 850.597 862.794 853.094C813.902 858.954 747.75 857.485 702.076 837.631C693.387 833.855 684.547 829.475 676.547 824.397C665.865 817.616 655.935 810.071 644.935 803.724C643.839 802.948 642.636 802.173 641.657 801.255C640.558 800.225 640.107 799.092 640.141 797.591C640.2 795.02 642.314 791.815 643.71 789.683C647.812 783.418 653.16 777.895 657.76 771.977C661.423 767.263 664.635 761.36 668.926 757.232C669.885 756.309 671.095 755.152 672.535 755.333C675.277 755.678 684.917 763.602 687.866 765.58C694.731 770.188 701.682 774.512 709.162 778.061C747.591 796.294 780.85 804.099 823.703 803.271C922.157 801.086 1017.76 769.787 1098.44 713.322C1112.63 703.294 1125.25 692.043 1138.29 680.631C1152.64 668.077 1166.77 655.651 1180 641.892Z"/>
</svg>